<mxfile host="app.diagrams.net" modified="2023-12-23T13:41:41.197Z" agent="Mozilla/5.0 (Windows NT 10.0; Win64; x64) AppleWebKit/537.36 (KHTML, like Gecko) Chrome/120.0.0.0 Safari/537.36 Edg/120.0.0.0" etag="NCUk7ZFIEN5Ls7Zp0fBW" version="22.1.11" type="device">
  <diagram name="Page-1" id="R74eGV0gvr7xFTtG1NQL">
    <mxGraphModel dx="1179" dy="669" grid="1" gridSize="10" guides="1" tooltips="1" connect="1" arrows="1" fold="1" page="1" pageScale="1" pageWidth="850" pageHeight="1100" math="0" shadow="0">
      <root>
        <mxCell id="0" />
        <mxCell id="1" parent="0" />
        <mxCell id="itZjnacTzHKNgaHowbh7-4" style="rounded=0;orthogonalLoop=1;jettySize=auto;html=1;entryX=0;entryY=0.5;entryDx=0;entryDy=0;" edge="1" parent="1" source="itZjnacTzHKNgaHowbh7-1" target="itZjnacTzHKNgaHowbh7-2">
          <mxGeometry relative="1" as="geometry" />
        </mxCell>
        <mxCell id="itZjnacTzHKNgaHowbh7-1" value="Input URL" style="rounded=0;whiteSpace=wrap;html=1;" vertex="1" parent="1">
          <mxGeometry x="240" y="260" width="120" height="60" as="geometry" />
        </mxCell>
        <mxCell id="itZjnacTzHKNgaHowbh7-5" value="" style="rounded=0;orthogonalLoop=1;jettySize=auto;html=1;entryX=0;entryY=0.5;entryDx=0;entryDy=0;exitX=1;exitY=0.5;exitDx=0;exitDy=0;" edge="1" parent="1" source="itZjnacTzHKNgaHowbh7-2" target="itZjnacTzHKNgaHowbh7-3">
          <mxGeometry relative="1" as="geometry" />
        </mxCell>
        <mxCell id="itZjnacTzHKNgaHowbh7-2" value="Chuyển đổi URL thành vetor số nguyên" style="rounded=0;whiteSpace=wrap;html=1;" vertex="1" parent="1">
          <mxGeometry x="440" y="260" width="120" height="60" as="geometry" />
        </mxCell>
        <mxCell id="itZjnacTzHKNgaHowbh7-7" style="edgeStyle=orthogonalEdgeStyle;rounded=0;orthogonalLoop=1;jettySize=auto;html=1;entryX=0.5;entryY=0;entryDx=0;entryDy=0;exitX=0.5;exitY=1;exitDx=0;exitDy=0;" edge="1" parent="1" source="itZjnacTzHKNgaHowbh7-3" target="itZjnacTzHKNgaHowbh7-6">
          <mxGeometry relative="1" as="geometry" />
        </mxCell>
        <mxCell id="itZjnacTzHKNgaHowbh7-3" value="Tải mô hình đã huấn luyện trước" style="rounded=0;whiteSpace=wrap;html=1;" vertex="1" parent="1">
          <mxGeometry x="640" y="260" width="120" height="60" as="geometry" />
        </mxCell>
        <mxCell id="itZjnacTzHKNgaHowbh7-10" style="edgeStyle=orthogonalEdgeStyle;rounded=0;orthogonalLoop=1;jettySize=auto;html=1;entryX=1;entryY=0.5;entryDx=0;entryDy=0;" edge="1" parent="1" source="itZjnacTzHKNgaHowbh7-6" target="itZjnacTzHKNgaHowbh7-8">
          <mxGeometry relative="1" as="geometry" />
        </mxCell>
        <mxCell id="itZjnacTzHKNgaHowbh7-6" value="Đưa ra dự đoán với mô hình đã tải" style="rounded=0;whiteSpace=wrap;html=1;" vertex="1" parent="1">
          <mxGeometry x="640" y="380" width="120" height="60" as="geometry" />
        </mxCell>
        <mxCell id="itZjnacTzHKNgaHowbh7-11" style="edgeStyle=orthogonalEdgeStyle;rounded=0;orthogonalLoop=1;jettySize=auto;html=1;" edge="1" parent="1" source="itZjnacTzHKNgaHowbh7-8" target="itZjnacTzHKNgaHowbh7-9">
          <mxGeometry relative="1" as="geometry" />
        </mxCell>
        <mxCell id="itZjnacTzHKNgaHowbh7-14" style="edgeStyle=orthogonalEdgeStyle;rounded=0;orthogonalLoop=1;jettySize=auto;html=1;entryX=1;entryY=0.5;entryDx=0;entryDy=0;" edge="1" parent="1" source="itZjnacTzHKNgaHowbh7-8" target="itZjnacTzHKNgaHowbh7-13">
          <mxGeometry relative="1" as="geometry" />
        </mxCell>
        <mxCell id="itZjnacTzHKNgaHowbh7-8" value="Kết quả dự đoán &amp;gt; 0.5" style="rhombus;whiteSpace=wrap;html=1;" vertex="1" parent="1">
          <mxGeometry x="417.5" y="370" width="165" height="80" as="geometry" />
        </mxCell>
        <mxCell id="itZjnacTzHKNgaHowbh7-9" value="URL đáng tin cậy" style="rounded=0;whiteSpace=wrap;html=1;" vertex="1" parent="1">
          <mxGeometry x="440" y="500" width="120" height="60" as="geometry" />
        </mxCell>
        <mxCell id="itZjnacTzHKNgaHowbh7-12" value="Yes" style="text;html=1;align=center;verticalAlign=middle;resizable=0;points=[];autosize=1;strokeColor=none;fillColor=none;" vertex="1" parent="1">
          <mxGeometry x="500" y="460" width="40" height="30" as="geometry" />
        </mxCell>
        <mxCell id="itZjnacTzHKNgaHowbh7-13" value="URL có khả năng phishing" style="rounded=0;whiteSpace=wrap;html=1;" vertex="1" parent="1">
          <mxGeometry x="240" y="380" width="120" height="60" as="geometry" />
        </mxCell>
        <mxCell id="itZjnacTzHKNgaHowbh7-15" value="No" style="text;html=1;align=center;verticalAlign=middle;resizable=0;points=[];autosize=1;strokeColor=none;fillColor=none;" vertex="1" parent="1">
          <mxGeometry x="370" y="380" width="40" height="30" as="geometry" />
        </mxCell>
      </root>
    </mxGraphModel>
  </diagram>
</mxfile>
